HIERARCHY
ROOT Hips
{
  OFFSET 43.0842 91.1655 101.099
  CHANNELS 6 Xposition Yposition Zposition Zrotation Xrotation Yrotation
  JOINT LeftUpLeg
  {
    OFFSET 8.64259 1.95398 -2.38835
    CHANNELS 3 Zrotation Xrotation Yrotation
    JOINT LeftLeg
    {
      OFFSET 43.7702 0 0
      CHANNELS 3 Zrotation Xrotation Yrotation
      JOINT LeftFoot
      {
        OFFSET 40.6238 0 0
        CHANNELS 3 Zrotation Xrotation Yrotation
        JOINT LeftToeBase
        {
          OFFSET 12.7242 0 0
          CHANNELS 3 Zrotation Xrotation Yrotation
          End Site
          {
            OFFSET 0 0 0
          }
        }
      }
    }
  }
  JOINT RightUpLeg
  {
    OFFSET -8.2249 1.95398 -2.59336
    CHANNELS 3 Zrotation Xrotation Yrotation
    JOINT RightLeg
    {
      OFFSET 43.5653 0 0
      CHANNELS 3 Zrotation Xrotation Yrotation
      JOINT RightFoot
      {
        OFFSET 40.6238 0 0
        CHANNELS 3 Zrotation Xrotation Yrotation
        JOINT RightToeBase
        {
          OFFSET 12.7242 0 0
          CHANNELS 3 Zrotation Xrotation Yrotation
          End Site
          {
            OFFSET 0 0 0
          }
        }
      }
    }
  }
  JOINT Spine
  {
    OFFSET 0.165834 0.87714 6.61349
    CHANNELS 3 Zrotation Xrotation Yrotation
    JOINT Spine1
    {
      OFFSET 7.38963 1.71661e-005 0
      CHANNELS 3 Zrotation Xrotation Yrotation
      JOINT Spine2
      {
        OFFSET 11.9445 1.14441e-005 0
        CHANNELS 3 Zrotation Xrotation Yrotation
        JOINT Spine3
        {
          OFFSET 14.7254 4.19617e-005 0
          CHANNELS 3 Zrotation Xrotation Yrotation
          JOINT Spine4
          {
            OFFSET 10.9679 0 0
            CHANNELS 3 Zrotation Xrotation Yrotation
            JOINT RightShoulder
            {
              OFFSET 2.46616 -1.6653 3.69651
              CHANNELS 3 Zrotation Xrotation Yrotation
              JOINT RightArm
              {
                OFFSET 13.0012 0 0
                CHANNELS 3 Zrotation Xrotation Yrotation
                JOINT RightForeArm
                {
                  OFFSET 28.7848 1.52588e-005 0
                  CHANNELS 3 Zrotation Xrotation Yrotation
                  JOINT RightHand
                  {
                    OFFSET 26.5688 1.52588e-005 0
                    CHANNELS 3 Zrotation Xrotation Yrotation
                    End Site
                    {
                      OFFSET 0 0 0
                    }
                  }
                }
              }
            }
            JOINT LeftShoulder
            {
              OFFSET 2.38034 -1.29275 -3.7523
              CHANNELS 3 Zrotation Xrotation Yrotation
              JOINT LeftArm
              {
                OFFSET 16.3182 6.10351e-005 0
                CHANNELS 3 Zrotation Xrotation Yrotation
                JOINT LeftForeArm
                {
                  OFFSET 27.0901 0 0
                  CHANNELS 3 Zrotation Xrotation Yrotation
                  JOINT LeftHand
                  {
                    OFFSET 24.5451 1.52588e-005 0
                    CHANNELS 3 Zrotation Xrotation Yrotation
                    End Site
                    {
                      OFFSET 0 0 0
                    }
                  }
                }
              }
            }
            JOINT Neck
            {
              OFFSET 5.0226 -0.0266342 0
              CHANNELS 3 Zrotation Xrotation Yrotation
              JOINT Head
              {
                OFFSET 6.69364 2.86102e-005 0
                CHANNELS 3 Zrotation Xrotation Yrotation
                End Site
                {
                  OFFSET 0 0 0
                }
              }
            }
          }
        }
      }
    }
  }
}
MOTION
Frames:	15
Frame Time:	0.0333333
-33.7504 96.9435 62.7232 82.9335 -6.0423 142.485 179.514 46.1351 141.127 -35.1722 21.0832 -0.0605949 64.4266 3.41339 21.1438 29.0127 -2.82617 4.77259 -151.856 56.6926 54.7917 -112.714 3.19538 -9.09623 72.6652 -12.2865 -22.8591 45.5939 -7.31806 -10.3027 -0.874479 8.78406 -91.3826 9.27213 -2.36399 -2.56813 -2.399 -2.4747 -2.46166 -24.9218 -1.48332 -3.15945 -4.9092 -1.4833 -3.15944 99.703 -46.9713 -85.9839 2.58 6.01592 25.3652 41.2869 15.1404 -84.9948 -33.7626 -11.7279 20.3035 -96.9858 -49.5354 68.2387 27.7635 21.6418 -60.9272 9.21597 2.59131 -54.5563 37.7184 4.4444 -3.6199 -22.9357 -7.38743 -25.9852 1.9063 -9.79596 -10.577 
-33.2373 96.1746 62.3465 84.6452 -5.53723 136.911 -175.684 43.5441 134.388 -36.8137 19.7812 -1.90779 64.6294 3.72505 21.9692 30.2275 -0.885812 4.4418 -170.956 62.1881 76.7595 -118.567 3.70083 -8.11447 73.3834 -12.2439 -19.0968 48.6704 -9.28275 -10.2455 -0.861919 8.88513 -91.1117 9.08049 -2.21599 -2.04557 -2.59002 -2.30388 -1.94607 -25.1204 -1.49902 -2.61677 -5.10771 -1.499 -2.61677 100.815 -44.2089 -84.27 4.57271 5.97187 29.3492 43.0643 10.5622 -87.7422 -32.463 -10.9611 19.4768 -97.3588 -49.6623 67.7332 28.7301 20.2316 -64.2524 10.52 2.46667 -56.6568 37.8279 4.46104 -3.60089 -21.8185 -8.53517 -25.0816 1.60532 -10.5318 -9.57673 
-32.225 95.5075 61.8212 87.7355 -5.68285 131.978 -171.189 39.191 129.038 -38.383 18.1051 -3.66205 65.4337 4.27168 22.5182 30.8676 0.0371039 4.39602 164.586 57.3997 104.228 -114.521 3.6042 -7.51413 74.1759 -12.2988 -19.257 51.6627 -11.2588 -9.35706 -0.746623 9.07586 -90.9414 8.70397 -1.90722 -1.73771 -2.96664 -1.98183 -1.6521 -25.4984 -1.29696 -2.23044 -5.48573 -1.29695 -2.23045 101.713 -39.8827 -82.8202 8.051 5.4426 32.2116 41.8981 5.69736 -92.0889 -30.221 -9.70928 18.1585 -97.0017 -49.7563 68.2876 24.771 18.7614 -65.588 11.1264 3.60826 -60.256 38.2798 4.48158 -3.81174 -20.1753 -10.2113 -22.4698 0.738247 -11.6525 -9.99217 
-30.988 95.3605 60.9303 89.6601 -5.95866 126.522 -168.169 33.6211 122.921 -37.5881 16.2658 -5.20294 65.6517 3.5734 23.2136 31.2187 0.307039 4.74306 157.106 47.3096 112.714 -102 2.20455 -4.98308 77.0115 -15.1297 -12.2718 50.4327 -10.2074 -11.7411 -0.737724 9.16999 -90.6879 8.52288 -1.7762 -1.24784 -3.14736 -1.82938 -1.16845 -25.6838 -1.31914 -1.72395 -5.67111 -1.31911 -1.72393 102.292 -36.8188 -81.8009 12.3171 2.10645 33.6611 38.6788 3.3432 -97.106 -27.7715 -8.38355 16.4912 -95.8464 -48.7062 69.6587 18.0166 19.05 -65.9644 11.8613 4.11114 -64.3304 38.8411 4.65144 -3.09842 -18.8361 -11.6689 -21.917 0.382899 -12.713 -8.57327 
-29.5357 95.7298 60.0741 90.0348 -7.20645 120.92 -166.643 28.3094 116.989 -34.9143 14.0636 -6.69848 65.031 1.60451 22.5617 31.9036 0.69062 5.66515 160.143 38.8215 111.143 -82.1557 2.90511 0.234716 74.3985 -12.493 -3.90585 48.3976 -9.04093 -10.8237 -0.664032 9.02983 -90.3932 8.81016 -1.49956 -0.679848 -2.86004 -1.528 -0.6132 -25.3989 -1.2259 -1.09913 -5.3862 -1.2259 -1.09913 102.788 -34.1997 -80.844 17.5028 -1.33306 34.2604 34.3191 1.82147 -102.303 -23.6685 -6.40925 13.9972 -94.8964 -47.1835 70.6102 11.0188 19.7638 -65.2617 12.7494 6.00428 -69.0915 39.2226 4.85008 -2.09167 -17.416 -12.6269 -22.02 -0.0615193 -13.269 -6.48393 
-28.0511 96.1543 59.1689 90.6997 -8.15207 116.056 -166.638 22.9138 111.668 -33.0131 12.7171 -6.3393 63.7737 -0.0978244 20.5148 32.6145 0.681916 7.31215 165.622 30.5909 106.828 -61.7384 4.91155 5.08793 63.9995 -3.64834 4.06802 42.1333 -5.00476 -10.5769 -0.518572 8.9742 -90.2059 8.92342 -1.12619 -0.331146 -2.74705 -1.13967 -0.281257 -25.285 -0.974603 -0.654329 -5.2723 -0.974591 -0.654326 103.147 -31.3499 -80.0783 22.8264 -2.73961 34.0089 27.4125 1.65956 -106.732 -20.0303 -4.79563 11.1506 -94.2078 -46.6728 71.5043 6.08671 19.8571 -64.2581 13.0862 8.43868 -74.5867 38.8111 4.86483 -1.63989 -15.0104 -14.3618 -20.4088 -1.18988 -14.4435 -5.97517 
-26.6023 96.6944 58.3163 92.3476 -8.26943 111.289 -167.155 16.9146 106.543 -31.5052 13.2524 -5.13796 62.0718 -0.997038 18.281 33.0795 0.37262 8.88463 171.407 21.9536 102.244 -44.9434 8.20444 6.26366 55.9891 0.448392 18.4292 30.9933 2.32046 -9.94463 -0.319567 9.10852 -90.0008 8.65739 -0.637909 0.040998 -3.01339 -0.635473 0.069028 -25.5498 -0.620729 -0.152618 -5.53717 -0.620752 -0.15263 103.587 -30.1134 -79.1482 26.8262 -2.10237 32.1139 15.5228 3.09956 -109.873 -19.5128 -4.49364 9.16664 -93.422 -45.8282 72.4627 1.80233 19.4801 -63.5335 14.0268 11.0812 -80.0484 38.5293 5.01773 -0.348548 -12.3307 -16.3221 -19.3586 -1.95627 -15.8525 -4.98141 
-25.574 96.7469 57.6058 93.0738 -9.72756 106.05 -167.348 14.0719 101.49 -31.9594 14.6523 -5.59036 60.4908 -2.84529 16.52 33.275 0.680561 8.85941 175.679 16.3267 99.2772 -32.4405 5.42316 4.3332 48.9611 5.5867 19.2574 27.8481 1.07194 -1.452 -0.0536913 9.11366 -89.8249 8.64669 -0.0295566 0.347931 -3.02428 -0.0141925 0.348885 -25.5591 -0.132754 0.322961 -5.54646 -0.132762 0.322959 103.992 -29.0124 -78.2547 28.9497 -0.433631 28.0608 2.5298 5.4273 -110.616 -16.6131 -3.44563 7.00444 -94.4901 -47.3051 71.266 0.330199 19.3216 -61.8933 14.703 11.2703 -84.7993 36.6514 4.8113 0.123756 -9.14879 -18.054 -16.0351 -4.24323 -17.1171 -5.24026 
-24.8478 96.1159 56.9611 93.1145 -11.456 101.563 -166.41 14.6445 98.283 -36.3751 17.0169 -6.83611 59.7916 -3.70328 13.4241 34.6329 2.76588 8.70958 177.471 12.8498 97.2957 -27.399 3.79867 1.96353 51.1663 5.05785 15.1121 33.7087 -2.04076 -2.36416 0.222888 9.04877 -89.7388 8.7749 0.560649 0.479694 -2.896 0.581239 0.454537 -25.4309 0.39057 0.626008 -5.41828 0.390593 0.626016 104.056 -29.2681 -78.1377 27.7395 2.20961 22.6555 -7.71581 5.80891 -109.611 -16.8611 -3.50971 6.64466 -95.5571 -49.1581 70.228 0.209753 19.4259 -61.2418 15.2188 9.8677 -87.4469 34.9218 4.54913 0.0424041 -6.41134 -19.0975 -11.8985 -8.27802 -17.8678 -6.50198 
-24.4731 95.0392 56.3521 92.9416 -12.0703 97.8347 -164.721 15.9004 96.0916 -41.4946 18.9271 -7.14279 59.5986 -2.52307 7.66264 35.945 5.02283 8.05285 177.281 11.6 95.0112 -25.4683 3.07519 1.05989 58.4824 2.49027 6.27788 32.9402 -2.19632 -0.445136 0.392846 8.99425 -89.7846 8.88381 0.879574 0.366917 -2.78688 0.894882 0.327834 -25.3234 0.728622 0.614297 -5.31073 0.728636 0.614304 103.785 -30.0146 -78.7371 24.2282 6.6197 15.8589 -13.8377 3.66533 -108.329 -17.4074 -3.74036 8.43256 -96.9908 -50.8947 68.6719 -0.908808 18.2337 -61.1213 15.5583 9.79283 -89.5683 34.1391 4.40194 -0.281702 -4.73748 -19.3794 -7.89439 -10.9051 -18.1487 -7.52031 
-24.334 94.4916 55.5296 92.7836 -11.6125 94.7335 -164.291 17.6614 95.1094 -46.8592 18.7664 -6.1979 60.7965 0.207633 -1.01167 36.3401 5.46454 8.27905 176.562 10.7203 92.1617 -23.7433 5.96066 -0.0789056 61.8477 0.388818 6.44232 32.3203 -2.53179 1.73473 0.449341 8.92602 -89.8908 9.02131 0.945149 0.150326 -2.64929 0.950818 0.108572 -25.1868 0.85625 0.427448 -5.1741 0.856241 0.427436 103.53 -31.1982 -79.3061 20.2993 11.7214 9.48935 -16.1374 1.43088 -106.956 -18.9105 -4.23434 7.93925 -97.7984 -51.4587 67.6876 -2.75496 16.6773 -62.5655 15.9245 10.9396 -91.025 31.6563 4.09682 0.322984 -3.89419 -19.7055 -5.79833 -11.2183 -18.6302 -7.04549 
-24.3854 93.2012 54.7868 92.1554 -12.6683 92.665 -163.986 19.4467 96.2305 -50.3581 20.6808 -5.424 63.4664 3.81398 0.0364518 37.538 6.94783 8.68437 175.572 11.2438 89.6772 -23.7943 4.33799 -0.407255 65.9082 -3.3335 5.19991 33.8516 -4.07792 4.25779 0.585259 8.78091 -90.0494 9.31295 1.14495 -0.181775 -2.35751 1.13588 -0.23201 -24.8966 1.14663 0.170781 -4.88399 1.14667 0.17078 103.222 -32.4671 -79.9625 16.2973 17.8826 3.0106 -19.5253 0.0356292 -106.327 -18.531 -4.09066 7.5492 -97.9771 -51.4611 67.4316 -4.46515 13.8806 -65.3161 15.7131 13.2551 -92.4876 28.8322 3.69026 0.380318 -3.19682 -19.9092 -3.90148 -11.4917 -18.9515 -7.45549 
-24.5632 91.9543 54.1616 91.2972 -14.4212 91.3306 -164.297 20.8663 99.3591 -51.6017 21.9408 -4.28068 62.4673 2.35609 4.83345 39.5208 9.49208 9.17178 175.054 12.7234 88.4914 -24.2416 5.40463 -0.413829 70.5001 -7.63162 4.16043 33.5528 -4.86182 7.45462 0.713002 8.64038 -90.2797 9.59696 1.29532 -0.65418 -2.07355 1.26531 -0.710569 -24.6136 1.43202 -0.234575 -4.60098 1.43204 -0.234572 103.069 -33.4525 -80.2886 13.6371 24.8914 -4.50901 -22.9196 -1.49553 -105.296 -16.6705 -3.43171 5.48832 -98.1237 -51.4064 67.2031 -5.22522 10.828 -68.8634 16.4495 15.3898 -94.0106 26.7743 3.39671 0.694679 -2.11342 -19.9632 -1.8021 -11.4238 -19.1685 -7.9502 
-24.7358 91.1789 53.6976 90.6518 -15.3733 90.7498 -165.363 21.8227 103.855 -50.9101 20.6408 -2.85065 60.6485 -0.938294 8.83158 39.193 9.14883 8.95701 175.376 16.3722 88.1524 -29.4264 3.05854 -0.894141 70.6231 -8.23288 2.25694 35.335 -5.45125 6.5852 0.735134 8.53186 -90.5281 9.816 1.22604 -1.14527 -1.85491 1.17445 -1.19813 -24.3929 1.51354 -0.723827 -4.38022 1.51354 -0.723837 102.638 -34.528 -81.1351 12.528 32.1698 -11.3041 -24.963 -3.27942 -104.322 -16.1267 -3.24822 5.29462 -97.7236 -50.6881 67.5415 -5.83714 7.87937 -73.5128 15.8072 17.6651 -94.2904 24.0086 2.97655 -0.0417076 -2.06611 -20.5514 -1.10125 -10.4979 -19.8506 -8.77036 
-24.6652 90.379 52.9779 90.551 -15.1626 89.9585 -166.705 21.583 107.532 -49.0149 18.1124 -1.80988 60.2363 -2.78471 11.672 35.3069 3.52969 9.05982 175.236 18.6458 87.3429 -33.1148 0.355535 -1.23142 70.3334 -8.57239 -2.42499 38.0217 -6.80747 7.09935 0.607956 8.51021 -90.6374 9.85723 0.922741 -1.33899 -1.81412 0.862894 -1.3783 -24.3485 1.28246 -0.999803 -4.3358 1.28246 -0.999805 102.423 -35.0537 -81.5516 13.3219 38.7111 -17.2137 -23.2467 -5.46169 -102.365 -13.8695 -2.54832 4.57264 -96.1712 -48.767 69.1956 -5.89956 5.84922 -79.1346 15.653 18.8816 -93.867 22.8357 2.80455 -0.0168725 -2.11692 -21.7372 -2.04969 -9.7555 -20.9516 -9.13117 
